<svg width="160" height="160" fill="none"  xmlns="http://www.w3.org/2000/svg"><path d="M79.995 140c33.137 0 60-26.863 60-60s-26.863-60-60-60-60 26.863-60 60 26.863 60 60 60z" fill="#FFE2CD"/><path d="M73.985 129.14c4.21 1.24 8.74 1.05 12.93-.25l50.82-15.72c2.92-.86 4.91-3.45 4.91-6.39V74.73c0-1.99-.92-3.88-2.51-5.15l-39.67-32.29c-6.13-4.89-22.5-11.32-23.17-3.69l-11.85 87.43c-.24 2.75 2.62 6.36 8.53 8.11h.01z" fill="#fff"/><path d="M74.995 129.67l-50.34-5.18c-4.47-.46-6.5-3.73-7.13-9.87v.05c-2.71-40.42 5.96-67.86 5.96-67.86 1.08-3.55 4.4-6.08 7.9-6.68l1.11-.18c13.4-2.7 47.61-9.82 47.61-9.82 4.93-.85 9.46 2.88 9.46 7.8l-5.67 83.87c0 4.7-4.14 8.37-8.9 7.88v-.01z" fill="#2B9DF3"/><path d="M76.485 87.28l-49.87-.09c-4.18-.43-7.2-4.14-6.7-8.25l1.05-7.72c1.05-7.76 2.51-15.47 4.38-23.09l.06-.26c.93-3.28 3.31-5.47 6.58-6.04l46.53-9.58c4.61-.8 8.84 2.69 8.84 7.29l-2.56 40.36c0 4.39-3.87 7.82-8.32 7.36l.01.02z" fill="#002C5C"/><path d="M76.192 110.556c.236-3.643-2.232-6.768-5.512-6.979-3.279-.212-6.128 2.57-6.363 6.213-.235 3.643 2.233 6.768 5.512 6.979 3.28.212 6.129-2.57 6.364-6.213z" fill="#FC790D"/><mask id="prefix__a" style="mask-type:luminance" maskUnits="userSpaceOnUse" x="64" y="103" width="13" height="14"><path d="M76.192 110.556c.236-3.643-2.232-6.768-5.512-6.979-3.279-.212-6.128 2.57-6.363 6.213-.235 3.643 2.233 6.768 5.512 6.979 3.28.212 6.129-2.57 6.364-6.213z" fill="#fff"/></mask><g mask="url(#prefix__a)"><path d="M80.232 110.453c.193-3.54-2.368-6.559-5.72-6.742-3.353-.183-6.228 2.538-6.422 6.078-.194 3.541 2.367 6.559 5.72 6.743 3.353.183 6.228-2.538 6.422-6.079z" fill="#FDFBF0"/></g><path d="M33.241 106.881c.208-3.23-1.977-6-4.882-6.187-2.904-.187-5.428 2.279-5.636 5.509-.208 3.229 1.977 5.999 4.882 6.187 2.904.187 5.428-2.279 5.636-5.509z" fill="#FC790D"/><mask id="prefix__b" style="mask-type:luminance" maskUnits="userSpaceOnUse" x="22" y="100" width="12" height="13"><path d="M33.241 106.881c.208-3.23-1.977-6-4.882-6.187-2.904-.187-5.428 2.279-5.636 5.509-.208 3.229 1.977 5.999 4.882 6.187 2.904.187 5.428-2.279 5.636-5.509z" fill="#fff"/></mask><g mask="url(#prefix__b)"><path d="M36.816 106.804c.171-3.138-2.1-5.813-5.072-5.976-2.972-.162-5.52 2.25-5.692 5.388-.172 3.137 2.099 5.813 5.071 5.975 2.972.163 5.521-2.249 5.693-5.387z" fill="#FDFBF0"/></g><path d="M45.745 39.05l18.25 48.2-6.41-.01-16.26-47.3 4.42-.89zM54.905 37.15l7.93 33.38-12.55-32.42 4.62-.96z" fill="#0770E4"/><path d="M136.405 88.86h-40.95c-2.87 0-5.15-2.22-4.99-4.87l2.39-39.62c.13-2.12 2.8-3.22 4.6-1.89l40.97 30.36c.76.56 1.2 1.42 1.2 2.32v10.73c0 1.64-1.44 2.97-3.22 2.97z" fill="#002C5C"/><path d="M109.275 122.02l1.54-.5s.84-14.31-5.31-14.03l3.77 14.53z" fill="#05054F"/><path d="M94.335 117.1c.23-5.51 2.72-9.84 5.58-9.67h5.27c2.85.17 4.98 4.77 4.76 10.28-.23 5.51-2.72 9.84-5.58 9.67l-4.97-.46h-.3c-2.85-.17-4.98-4.3-4.76-9.81v-.01z" fill="#002B39"/><path d="M107.766 117.836c.245-3.261-.865-6.002-2.479-6.123-1.614-.121-3.12 2.424-3.365 5.685-.244 3.26.866 6.001 2.479 6.122 1.614.121 3.12-2.424 3.365-5.684z" fill="#27ADFF"/><path d="M106.995 118c.27-3.12-.7-5.81-2.2-6.21.19-.05.39-.07.59-.05 1.61.2 2.68 3 2.4 6.26-.28 3.26-1.81 5.74-3.42 5.54-.07 0-.13-.03-.2-.05 1.38-.38 2.59-2.64 2.84-5.49h-.01z" fill="#0770E4"/><path d="M126.005 110.99c.15-3.73 1.84-6.66 3.78-6.55H133.355c1.93.11 3.38 3.23 3.22 6.96-.15 3.73-1.84 6.66-3.78 6.55l-3.37-.31h-.2c-1.93-.11-3.38-2.91-3.22-6.65z" fill="#002B39"/><path d="M135.102 111.495c.165-2.208-.584-4.065-1.675-4.147-1.09-.082-2.109 1.642-2.274 3.851-.166 2.208.584 4.065 1.674 4.147 1.091.081 2.109-1.643 2.275-3.851z" fill="#27ADFF"/><path d="M134.585 111.6c.18-2.11-.48-3.94-1.49-4.21.13-.04.26-.05.4-.03 1.09.13 1.82 2.03 1.62 4.24-.19 2.21-1.23 3.88-2.32 3.75-.05 0-.09-.02-.14-.03.93-.26 1.75-1.78 1.92-3.72h.01z" fill="#0770E4"/><path d="M92.085 127.31l6.26-1.95c1.31-.44 2.18-1.62 2.18-2.96v-9.34c0-2.97 2.05-5.58 5.09-5.58l.95-.96h-10.84l-3.64 8.94v11.85zM124.685 117.21l4.01-1.25c.84-.28 1.4-1.04 1.4-1.9v-5.99c0-1.91 1.41-3.63 3.36-3.63l.52-.57h-6.96l-2.33 5.74v7.6z" fill="#fff"/><path d="M85.675 95.19l54.97-1.28-.01 5.41-55.75 6.26.79-10.39z" fill="#FC790D"/><path d="M35.865 106.74s5.89 2.38 25.09 1.79l-25.09-1.79zM22.545 115.98l53.28 4.77s-.31 2.68-3.1 2.68-48.94-5.07-48.94-5.07-1.57-.71-1.24-2.38z" fill="#0273EC"/><path d="M17.595 87.36s8.67 2.09 9.91 7.75l43.05.6s3.1-6.56 15.49-8.35" stroke="#0073EC" stroke-width=".61" stroke-miterlimit="10"/><path d="M98.335 125.36c1.35-.44 1.86-1.41 2.06-2.12l-13.59 4.2c-2.16.67-4.4 1.02-6.65 1.05a8.66 8.66 0 01-3.92 1.21c3.51.59 7.15.28 10.57-.77l11.44-3.54.09-.03zM130.105 114.05l-19.27 5.96c0 .77-.03 1.46-.03 1.5l17.7-5.47c1.62-.55 1.63-1.66 1.6-1.98v-.01zM137.625 111.72l-.55.17c.04.73 0 1.42 0 1.42 0 .03-.02.05-.02.08l.56-.17c2.92-.86 4.91-3.45 4.91-6.39v-1.49c0 2.94-1.99 5.53-4.91 6.39l.01-.01z" fill="#0073EC"/><path d="M115.775 50.7h-.23v40.24h.23V50.7z" fill="#fff"/><path d="M136.445 113.88l.99-.32s.31-9.06-3.64-8.88l2.66 9.2h-.01z" fill="#05054F"/><path d="M142.995 99.09l-.07-7.88c-1.05-.08-1.94.77-1.94 1.83v8.3c0 1.01.81 1.84 1.81 1.84h.06l.14-4.08v-.01z" fill="#FC790D"/><path d="M131.445 64.14h-.23V91.7h.23V64.14z" fill="#fff"/></svg>