<svg width="160" height="160" fill="none" xmlns="http://www.w3.org/2000/svg"><path d="M80.001 140c33.137 0 60-26.863 60-60s-26.863-60-60-60-60 26.863-60 60 26.863 60 60 60z" fill="#FFE2CD"/><path d="M39.591 88.86h5.88c5.35 0 9.7 4.34 9.7 9.7v1.81c0 5.35-4.34 9.7-9.7 9.7h-5.88V88.86z" fill="#002C5C"/><path d="M40.311 110.06c4.899 0 8.87-4.746 8.87-10.6 0-5.854-3.971-10.6-8.87-10.6-4.899 0-8.87 4.746-8.87 10.6 0 5.854 3.971 10.6 8.87 10.6z" fill="#FC790D"/><path d="M40.111 107.99c4.02 0 7.28-3.895 7.28-8.7s-3.26-8.7-7.28-8.7c-4.02 0-7.28 3.895-7.28 8.7s3.26 8.7 7.28 8.7z" fill="#002C5C"/><path d="M21.721 98.28c-5-1.69-9.39-4.95-12.24-9.44-1.52-2.4-2.65-5.16-2.46-7.95.39-5.66 2.69-9.24 6.23-12.22 3.07-2.58 5.85-5.49 8.29-8.69 3.97-5.21 11.41-12.46 22.17-12.63 16.85-.27 82.89 29.14 82.89 29.14s1.63 1.1 2.45-1.1c.82-2.2 7.61-27.22 7.61-27.22l3.53 3.3-3.53 29.42s2.87 10.57-.27 13.2c-12.03 10.05-67.57 20.11-114.67 4.19z" fill="#fff"/><path d="M21.801 97.97c47.1 15.92 102.64 5.87 114.67-4.19.46-.38.78-.93 1.01-1.59-54.9 12.28-95.53-5.08-105.04-9.81-6.57-3.26-16.95-10.99-22.92-9.75-1.35 2.16-2.2 4.71-2.43 7.96-.11 1.65.24 3.29.86 4.86.5 1.12 1.07 2.21 1.71 3.25 2.85 4.4 7.19 7.61 12.13 9.28l.01-.01z" fill="#FC790D"/><path d="M136.391 94.1c-55.99 9.1-88.59.64-101.91-4.46-3.52-1.35-6.84-3.17-9.91-5.37-4.74-3.4-14.09-9.27-17.28-5.29-.3.37.23-.14-.07.1-.09.58-.16 1.19-.2 1.82-.19 2.79.93 5.55 2.46 7.95 2.85 4.49 7.24 7.75 12.24 9.44 47.1 15.92 102.64 5.87 114.67-4.19z" fill="#002C5C"/><path d="M108.741 99.6c-.84-.9 51.31-6.86 43.45-10.2l-4.18-1.33-68.43 1.09c-3.06.05-5.55 2.51-5.67 5.6 2.44.15 33.34 5.95 34.83 4.84z" fill="#0071EC"/><path d="M73.911 94.76l73.81-6.69-68.14 1.09c-3.06.05-5.55 2.51-5.67 5.6z" fill="#002C5C"/><path d="M99.671 92.16h5.88c5.35 0 9.7 4.34 9.7 9.7v1.81c0 5.35-4.34 9.7-9.7 9.7h-5.88V92.16z" fill="#002C5C"/><path d="M100.381 113.36c4.899 0 8.87-4.746 8.87-10.6 0-5.854-3.971-10.6-8.87-10.6-4.899 0-8.87 4.746-8.87 10.6 0 5.854 3.971 10.6 8.87 10.6z" fill="#FC790D"/><path d="M100.191 111.29c4.021 0 7.28-3.895 7.28-8.7s-3.259-8.7-7.28-8.7c-4.02 0-7.28 3.895-7.28 8.7s3.26 8.7 7.28 8.7zM15.431 66.67s5.25-5.36 6.11-6.68c.78-1.19 17.06 2 19.45 2.49 2.62.53 5.44 2.2 5.44 5.5 0 1.78-1.52 3.17-3.27 2.98-4.7-.51-14.31-1.73-27.73-4.28v-.01z" fill="#002C5C"/><path d="M34.921 70.89l-.6-.14 3.1-9.89.6.14-3.1 9.89z" fill="#fff"/><path d="M136.661 80.9l3.53-29.42-3.53-3.3-8.33 23.49c-.66 1.86-2.28 3.28-4.23 3.46-.29.03-.59.03-.89 0-2.45-.27 7.11 4.67 13.45 5.77z" fill="#2B9DF3"/><path d="M98.511 80.28c-.03 4.44 3.36 4.44 3.33 0 .03-4.44-3.36-4.44-3.33 0zM103.721 82.1c-.03 4.44 3.36 4.44 3.33 0 .03-4.44-3.36-4.44-3.33 0z" fill="#002C5C"/><path d="M92.981 78.66c-.03 4.44 3.36 4.44 3.33 0 .03-4.44-3.36-4.44-3.33 0z" fill="#0071EC"/><path d="M87.521 77.23c-.03 4.44 3.36 4.44 3.33 0 .03-4.44-3.36-4.44-3.33 0zM82.191 75.56c-.03 4.44 3.36 4.44 3.33 0 .03-4.44-3.36-4.44-3.33 0z" fill="#002C5C"/><path d="M76.711 73.81c-.03 4.44 3.36 4.44 3.33 0 .03-4.44-3.36-4.44-3.33 0z" fill="#0071EC"/><path d="M71.231 72.22c-.03 4.44 3.36 4.44 3.33 0 .03-4.44-3.36-4.44-3.33 0zM65.991 70.65c-.03 4.44 3.36 4.44 3.33 0 .03-4.44-3.36-4.44-3.33 0z" fill="#002C5C"/><path d="M59.551 76.17a2.436 2.436 0 01-2.03-2.76l1.19-8.15c.19-1.33 1.42-2.25 2.73-2.05 1.31.2 2.22 1.43 2.03 2.76l-1.19 8.15c-.19 1.33-1.42 2.25-2.73 2.05z" stroke="#0071EC" stroke-width=".99" stroke-miterlimit="10"/><path d="M27.821 53.47c6.35-2.74 20.29-4.37 47.39 5.39 38.92 14.02 61.18 22.2 61.18 22.2s-73.01-34.02-92.68-33.7c-6.54.11-11.84 2.82-15.89 6.11z" fill="#2B9DF3"/></svg>