<svg width="160" height="160" fill="none"  xmlns="http://www.w3.org/2000/svg"><path d="M80 140c33.137 0 60-26.863 60-60s-26.863-60-60-60-60 26.863-60 60 26.863 60 60 60z" fill="#FFE2CD"/><path d="M88.68 129.41l51.85-15.81c1.37-.42 2.29-1.57 2.29-2.86V71.42c0-.89-.44-1.74-1.21-2.31L91.5 31.5c-1.91-1.41-4.8.34-4.8 2.56v92.65c0 1.8-1.52.89 1.97 2.7h.01z" fill="#fff"/><path d="M114.22 81.26v-40.1c0-3.43-2.84-6.25-6.54-6.71.35-.04.7-.07 1.06-.07 4.19 0 7.6 3.04 7.6 6.79v40.1c0 3.75-3.4 6.79-7.6 6.79-.36 0-.71-.03-1.06-.07 3.69-.46 6.54-3.29 6.54-6.71v-.02z" fill="#05054F"/><path d="M102.75 48.21h-7.06M102.75 73.63h-7.06" stroke="#05054F" stroke-width=".65" stroke-miterlimit="10"/><path d="M106.03 88.05h1.17a7.01 7.01 0 007.01-7.01V41.39a7.01 7.01 0 00-7.01-7.01h-1.17a7.01 7.01 0 00-7.01 7.01v39.65a7.01 7.01 0 007.01 7.01z" fill="#FC790D"/><path d="M86.89 104.5v22.13c0 1.8-1.61 1.23 1.88 3.05l51.94-16.15c1.37-.42 2.29-1.57 2.29-2.86V97.73l-56.11 6.77z" fill="#0073EC"/><path d="M28.22 126.08l57.19 3.9c5.49.39 10.19-3.48 10.19-8.4V38.43c0-5.21-5.23-9.17-10.97-8.32l-58.19 8.83c-4.55.67-6.9 4.19-6.9 8.32v70.41c0 4.4 3.78 8.05 8.68 8.4v.01z" fill="#27ADFF"/><path d="M36.77 94.98h-5.64c-.23 0-.42-.19-.42-.42v-6.8c0-1.64 1.33-2.98 2.98-2.98h.98c1.39 0 2.53 1.13 2.53 2.53v7.26c0 .23-.19.42-.42.42l-.01-.01zM31.25 76.88l5.57-.23c.25 0 .46-.18.46-.39v-7.82c0-1.53-1.44-2.27-3.21-2.27H34c-1.77 0-3.21 1.24-3.21 2.77v7.55c0 .22.2.39.46.39zM31.25 58.49l5.57-.51c.25 0 .46-.18.46-.39v-8.05c0-1.53-1.44-2.29-3.21-2.29H34c-1.77 0-3.21 1.24-3.21 2.77v8.08c0 .22.2.39.46.39zM55.46 95.03h-6.04c-.25 0-.45-.2-.45-.45v-7.29c0-1.76 1.43-3.19 3.19-3.19h.56c1.76 0 3.19 1.43 3.19 3.19v7.29c0 .25-.2.45-.45.45zM49.55 76.01l5.97-.23c.27 0 .49-.19.49-.42v-8.38c0-1.64-1.54-2.43-3.43-2.43h-.08c-1.9 0-3.43 1.33-3.43 2.96v8.08c0 .23.22.42.49.42h-.01zM49.55 56.69l5.97-.52c.27 0 .49-.19.49-.42v-8.64c0-1.64-1.54-2.45-3.43-2.45h-.08c-1.9 0-3.43 1.33-3.43 2.96v8.65c0 .23.22.42.49.42h-.01zM76.7 94.87h-6.33a.47.47 0 01-.47-.47v-7.64c0-1.85 1.5-3.35 3.35-3.35h.59c1.85 0 3.35 1.5 3.35 3.35v7.64c0 .26-.21.47-.47.47h-.02zM70.5 74.72l6.26-.23c.28 0 .51-.2.51-.44v-8.81c0-1.72-1.61-2.55-3.6-2.55h-.08c-1.99 0-3.6 1.39-3.6 3.11v8.48c0 .24.23.44.51.44zM70.5 54.17l6.26-.56c.28 0 .51-.2.51-.44v-9.05c0-1.72-1.61-2.57-3.6-2.57h-.08c-1.99 0-3.6 1.39-3.6 3.11v9.07c0 .24.23.44.51.44zM52.03 111.77c-5.38-.11-9.8 3.76-9.8 8.57v6.67l19.2 1.36v-8.04c-.02-4.66-4.19-8.45-9.39-8.56h-.01z" fill="#05054F"/><path d="M52.14 127.7l-.51-.04v-17.3h.51v17.34z" fill="#27ADFF"/><path d="M97.16 103.07H18.49a1.49 1.49 0 00-1.49 1.49v.04c0 .823.667 1.49 1.49 1.49h78.67a1.49 1.49 0 001.49-1.49v-.04a1.49 1.49 0 00-1.49-1.49z" fill="#05054F"/></svg>