<svg width="82" height="40" viewBox="0 0 82 40" fill="none" xmlns="http://www.w3.org/2000/svg">
<g clip-path="url(#clip0_12294_84866)">
<path d="M0 4.8C0 2.14903 2.14903 0 4.8 0H77.12C79.771 0 81.92 2.14903 81.92 4.8V35.2C81.92 37.851 79.771 40 77.12 40H4.8C2.14903 40 0 37.851 0 35.2V4.8Z" fill="#EC5B24"/>
<path fill-rule="evenodd" clip-rule="evenodd" d="M9.4209 9.04555C9.4209 8.31729 9.67862 7.69525 10.1944 7.17963C10.7102 6.66383 11.3321 6.40576 12.0605 6.40576C12.789 6.40576 13.4105 6.66383 13.9261 7.17963C14.4419 7.69525 14.7 8.31729 14.7 9.04555C14.7 9.77382 14.4419 10.3957 13.9261 10.9115C13.4105 11.4271 12.7884 11.6848 12.0605 11.6848C11.3326 11.6848 10.7102 11.4271 10.1944 10.9115C9.67862 10.3957 9.4209 9.77347 9.4209 9.04555ZM9.78486 13.6874H14.3358V28.4325H9.78486V13.6874ZM32.9888 9.04555C32.9888 8.31729 33.2465 7.69525 33.7622 7.17963C34.2781 6.66383 34.9002 6.40576 35.6283 6.40576C36.3563 6.40576 36.9782 6.66383 37.4942 7.17963C38.0098 7.69525 38.2677 8.31729 38.2677 9.04555C38.2677 9.77382 38.0096 10.3957 37.4942 10.9115C36.9782 11.4271 36.3562 11.6848 35.6283 11.6848C34.9003 11.6848 34.2781 11.4271 33.7622 10.9115C33.2465 10.3957 32.9888 9.77347 32.9888 9.04555ZM33.3528 13.6874H37.9039V28.4325H33.3528V13.6874ZM43.6808 20.969C43.6808 21.4546 43.7713 21.9147 43.9536 22.3495C44.1358 22.7841 44.3935 23.1686 44.7274 23.5024C45.0613 23.8359 45.4453 24.1042 45.8803 24.3065C46.3152 24.5087 46.7956 24.6096 47.3216 24.6096C47.8476 24.6096 48.3024 24.5087 48.7474 24.3065C49.1924 24.1042 49.5819 23.8361 49.9153 23.5024C50.249 23.1688 50.5073 22.7843 50.6891 22.3495C50.871 21.9146 50.9619 21.4546 50.9619 20.969C50.9619 20.4834 50.8712 20.0233 50.6891 19.5886C50.5073 19.1537 50.249 18.7693 49.9153 18.4356C49.5819 18.1021 49.1924 17.8341 48.7474 17.6315C48.3024 17.4294 47.8272 17.3282 47.3216 17.3282C46.816 17.3282 46.3152 17.4294 45.8803 17.6315C45.4453 17.8341 45.0613 18.1019 44.7274 18.4356C44.3935 18.7695 44.1358 19.1537 43.9536 19.5886C43.7713 20.0233 43.6808 20.4834 43.6808 20.969ZM55.1489 27.1884C55.1489 29.9799 54.4459 32.0984 53.0403 33.5445C51.6347 34.991 49.4954 35.7141 46.6236 35.7141C45.309 35.7141 44.0145 35.5675 42.7402 35.2742C41.4658 34.9808 40.2929 34.4094 39.2205 33.5599L41.7391 29.7978C42.4469 30.3844 43.1901 30.8496 43.9689 31.1934C44.7476 31.5375 45.602 31.7094 46.5325 31.7094C47.9283 31.7094 48.9547 31.3704 49.6121 30.6928C50.2696 30.0151 50.5979 29.1504 50.5979 28.0991V26.673H50.5371C50.0113 27.3809 49.3591 27.8818 48.5805 28.1748C47.8016 28.4683 47.0684 28.6147 46.3807 28.6147C45.2883 28.6147 44.2973 28.4273 43.4075 28.0533C42.5176 27.6792 41.7541 27.1532 41.1168 26.4757C40.4798 25.7984 39.9894 24.9941 39.6455 24.0638C39.3017 23.1334 39.1298 22.1122 39.1298 20.9994C39.1298 20.0288 39.2863 19.078 39.5999 18.1475C39.9136 17.2171 40.3584 16.398 40.9348 15.6899C41.5114 14.9821 42.2143 14.4106 43.0434 13.9759C43.8727 13.5411 44.8131 13.3238 45.8649 13.3238C46.5122 13.3238 47.1041 13.3946 47.6401 13.5359C48.1761 13.6775 48.6562 13.8596 49.081 14.0819C49.5061 14.3044 49.8699 14.5523 50.1734 14.8252C50.477 15.0983 50.7194 15.3664 50.9016 15.6293H50.9619V13.6876H55.1491V27.1886L55.1489 27.1884ZM60.9863 21.0599C60.9863 22.1726 61.3048 23.0724 61.942 23.7601C62.5793 24.4479 63.4742 24.7917 64.6269 24.7917C65.7796 24.7917 66.6751 24.4479 67.3118 23.7601C67.949 23.0724 68.2675 22.1726 68.2675 21.0599C68.2675 19.9471 67.949 19.0473 67.3118 18.3598C66.6749 17.6719 65.7799 17.328 64.6269 17.328C63.4739 17.328 62.5793 17.6719 61.942 18.3598C61.3048 19.0473 60.9863 19.9472 60.9863 21.0599ZM56.4355 21.0599C56.4355 19.8868 56.6479 18.825 57.0725 17.8742C57.4971 16.9235 58.0787 16.1093 58.817 15.4317C59.5551 14.754 60.4252 14.2332 61.4262 13.8694C62.4274 13.5053 63.4943 13.3234 64.6269 13.3234C65.7595 13.3234 66.8264 13.5053 67.8279 13.8694C68.8293 14.2334 69.6988 14.7542 70.4371 15.4317C71.1752 16.1093 71.757 16.9235 72.1816 17.8742C72.6062 18.825 72.8188 19.8868 72.8188 21.0599C72.8188 22.2329 72.6062 23.2949 72.1816 24.2457C71.757 25.1962 71.1752 26.0104 70.4371 26.6878C69.6988 27.3657 68.8293 27.8863 67.8279 28.2504C66.8265 28.6146 65.7597 28.7965 64.6269 28.7965C63.4941 28.7965 62.4274 28.6146 61.4262 28.2504C60.425 27.8863 59.5551 27.3657 58.817 26.6878C58.0787 26.0102 57.4971 25.1961 57.0725 24.2457C56.6479 23.2949 56.4355 22.2331 56.4355 21.0599Z" fill="white"/>
<path fill-rule="evenodd" clip-rule="evenodd" d="M20.9923 20.5441L16.0772 13.6874H21.4475L24.0567 17.6921L26.5749 13.6874H31.6415L26.8478 20.5441L32.5214 28.4323H27.1511L23.9352 23.5174L20.4765 28.4323H15.1672L20.9923 20.5441Z" fill="white"/>
</g>
<defs>
<clipPath id="clip0_12294_84866">
<rect width="81.92" height="40" fill="white"/>
</clipPath>
</defs>
</svg>
