<svg width="160" height="160" fill="none"  xmlns="http://www.w3.org/2000/svg"><path d="M79.616 140c33.137 0 60-26.863 60-60s-26.863-60-60-60-60 26.863-60 60 26.863 60 60 60z" fill="#FFE2CD"/><path d="M142.236 89.12c.42.42.65.99.65 1.58v7.9l-45.98 10.43-1.28 10.21-4.22 5.38-11.51-.26 2.85-31.24 4.04-19.3 3.26-33.07c.17-1.73 7.7-2.5 9.2-1.62l12.87 11.5c2.64 2.01 2.15 3.57 2.15 6.39l27.97 32.09v.01z" fill="#fff"/><path d="M83.416 93.3l59.58 3.39-60.13 1.66.55-5.05z" fill="#FC790D"/><path d="M93.536 49.31l48.93 40.2c.3.23.47.59.47.96v.59L92.106 61.3l1.43-11.99zM142.886 98.18v8.22c0 .58-.37 1.09-.92 1.28L82.326 130c-1.29.43-6.34-1.35-6.08-2.69l4.89-24.48 61.74-4.64.01-.01z" fill="#0073EC"/><path d="M121.196 82.38l-.6 9.04c-.03 1.1-.93 1.94-1.97 1.87l-20.39-1.97c-1-.07-1.76-.95-1.73-2l3.12-16.35c.04-1.25 1.18-2.13 2.33-1.81l17.87 9.28c.86.39 1.4 1.04 1.37 1.94zM136.886 89.83l-.15 4.17c-.02.58-.49 1.03-1.05.99l-12.75-1.3c-.53-.04-.94-.51-.92-1.06l.68-9.19c.02-.66.62-1.13 1.24-.96l12.22 6.32c.44.12.74.55.73 1.03zM89.376 91.69l-1.33 30.08c0 4.84-3.97 8.73-8.79 8.63l-52-1.01a8.627 8.627 0 01-8.28-7.03l-1.81-24.32c-.39-2.09-.22-6.02 1.9-6.03l70.31-.32z" fill="#002C5C"/><path d="M82.116 98.39c3.82-.02 6.42-2.68 7.26-6.42l12.19-48.53c.65-2.64-2.07-5.17-4.78-5.04l-61.25 2.71c-2.37.14-5.69 1.56-6.41 5.25l-11.52 46.22c-.96 3.04 1.32 6.13 4.5 6.11l60.01-.31v.01z" fill="#2B9DF3"/><path d="M51.476 86.53h5.96c2.39 0 4.44-2.02 4.57-4.52.13-2.5-1.7-4.52-4.1-4.52h-5.96c-2.39 0-4.44 2.02-4.57 4.52-.13 2.5 1.7 4.52 4.1 4.52z" fill="#285ED5"/><path d="M52.556 85.21h3.95c1.89 0 3.49-1.35 3.59-3.32.1-1.97-1.37-3.08-3.25-3.09h-3.95c-1.89 0-3.47 1.12-3.58 3.08-.1 1.97 1.35 3.32 3.24 3.32v.01z" fill="#092BA6"/><path d="M59.851 83.227c.72-1.425.223-3.124-1.109-3.796-1.33-.672-2.993-.061-3.712 1.364-.719 1.425-.222 3.125 1.109 3.796 1.331.672 2.993.061 3.712-1.364z" fill="#FC790D"/><path d="M52.536 85.22c-1.89 0-3.34-1.36-3.24-3.32.1-1.97 1.69-3.08 3.57-3.08h-.68c-1.89 0-3.47 1.12-3.58 3.08-.1 1.97 1.35 3.32 3.24 3.32h3.95-3.27.01z" fill="#002C5C"/><path d="M54.383 83.23c.719-1.425.222-3.125-1.109-3.796-1.331-.672-2.993-.061-3.712 1.364-.72 1.425-.223 3.124 1.109 3.796 1.331.672 2.993.061 3.712-1.364z" fill="#FC790D"/><path d="M32.126 76.94h-4.77l-.19 9.83h3.67l1.29-9.83z" fill="#092BA6"/><path d="M29.266 81.37c.762 0 1.38-.645 1.38-1.44 0-.795-.618-1.44-1.38-1.44-.762 0-1.38.645-1.38 1.44 0 .795.618 1.44 1.38 1.44zM29.266 85.22c.762 0 1.38-.645 1.38-1.44 0-.795-.618-1.44-1.38-1.44-.762 0-1.38.645-1.38 1.44 0 .795.618 1.44 1.38 1.44z" fill="#FDFBF0"/><path d="M24.926 86.77l2.43-9.83-.19 9.83h-2.24z" fill="#285ED5"/><path d="M84.746 76.94h-5.96l-.18 9.83h3.67l2.47-9.83z" fill="#092BA6"/><path d="M80.896 85.22c.762 0 1.38-.645 1.38-1.44 0-.795-.618-1.44-1.38-1.44-.762 0-1.38.645-1.38 1.44 0 .795.618 1.44 1.38 1.44z" fill="#FDFBF0"/><path d="M76.176 86.77l2.61-9.83-.18 9.83h-2.43z" fill="#285ED5"/><path d="M80.896 81.37c.762 0 1.38-.645 1.38-1.44 0-.795-.618-1.44-1.38-1.44-.762 0-1.38.645-1.38 1.44 0 .795.618 1.44 1.38 1.44z" fill="#FDFBF0"/><path d="M68.996 116.13c3.242 0 5.87-2.888 5.87-6.45 0-3.562-2.628-6.45-5.87-6.45s-5.87 2.888-5.87 6.45c0 3.562 2.628 6.45 5.87 6.45z" fill="#FC790D"/><mask id="prefix__a" style="mask-type:luminance" maskUnits="userSpaceOnUse" x="63" y="103" width="12" height="14"><path d="M68.996 116.13c3.242 0 5.87-2.888 5.87-6.45 0-3.562-2.628-6.45-5.87-6.45s-5.87 2.888-5.87 6.45c0 3.562 2.628 6.45 5.87 6.45z" fill="#fff"/></mask><g mask="url(#prefix__a)"><path d="M72.836 115.61c3.32 0 6.01-2.803 6.01-6.26s-2.69-6.26-6.01-6.26c-3.319 0-6.01 2.803-6.01 6.26s2.691 6.26 6.01 6.26z" fill="#FDFBF0"/></g><path d="M24.626 116.13c3.242 0 5.87-2.888 5.87-6.45 0-3.562-2.628-6.45-5.87-6.45s-5.87 2.888-5.87 6.45c0 3.562 2.628 6.45 5.87 6.45z" fill="#FC790D"/><mask id="prefix__b" style="mask-type:luminance" maskUnits="userSpaceOnUse" x="18" y="103" width="13" height="14"><path d="M24.626 116.13c3.242 0 5.87-2.888 5.87-6.45 0-3.562-2.628-6.45-5.87-6.45s-5.87 2.888-5.87 6.45c0 3.562 2.628 6.45 5.87 6.45z" fill="#fff"/></mask><g mask="url(#prefix__b)"><path d="M28.466 115.61c3.32 0 6.01-2.803 6.01-6.26s-2.69-6.26-6.01-6.26c-3.319 0-6.01 2.803-6.01 6.26s2.691 6.26 6.01 6.26z" fill="#FDFBF0"/></g><path d="M93.236 76.62l49.59 16.26c0-.16-48.91-19.01-48.91-19.01l-.68 2.76v-.01z" fill="#FC790D"/><path d="M52.146 68.18h-21.7c-1.85 0-3.2-1.74-2.75-3.54l4.37-17.45a4.093 4.093 0 013.81-3.11l22.32-.97c1.81-.08 3.18 1.61 2.74 3.37l-4.7 18.53a4.204 4.204 0 01-4.08 3.18l-.01-.01zM83.766 68.18h-22.74c-1.94 0-3.36-1.82-2.89-3.71l4.57-18.29a4.306 4.306 0 013.99-3.26l23.39-1.02c1.9-.08 3.33 1.69 2.87 3.53l-4.92 19.41a4.417 4.417 0 01-4.28 3.33l.01.01z" fill="#002C5C"/></svg>