<svg width="117" height="40" viewBox="0 0 117 40" fill="none" xmlns="http://www.w3.org/2000/svg">
  <path
    d="M0 7.87287C0 3.52481 3.52481 0 7.87287 0H32.1271C36.4752 0 40 3.52481 40 7.87287V32.1271C40 36.4752 36.4752 40 32.1271 40H7.87287C3.52481 40 0 36.4752 0 32.1271V7.87287Z"
    fill="#13131A" />
  <path d="M10.7789 8.13086H7.20898L7.20898 17.9884H10.7789L10.7789 8.13086Z" fill="#FFA621" />
  <path d="M32.8043 22.0059H29.2344V31.8634H32.8043V22.0059Z" fill="#269574" />
  <path
    d="M13.3337 13.2636C15.1162 11.4641 17.4868 10.4725 20.0066 10.4725C22.5265 10.4725 24.8971 11.4641 26.6796 13.2636C27.9839 14.5802 28.8588 16.2125 29.2345 17.9908H32.8043C32.389 15.2633 31.1337 12.7454 29.1622 10.7575C26.7193 8.28676 23.4668 6.92773 20.0066 6.92773C16.5465 6.92773 13.2963 8.28676 10.8511 10.7575C8.87956 12.7454 7.6243 15.2633 7.20898 17.9908H10.7788C11.1544 16.2125 12.0294 14.5802 13.3337 13.2636Z"
    fill="#FFA621" />
  <path
    d="M26.682 26.733C24.8994 28.5325 22.5288 29.5241 20.009 29.5241C17.4891 29.5241 15.1186 28.5325 13.336 26.733C12.0317 25.4164 11.1568 23.7841 10.7811 22.0059H7.20898C7.6243 24.7333 8.87956 27.2512 10.8511 29.2391C13.2963 31.7075 16.5488 33.0689 20.009 33.0689C23.4691 33.0689 26.7193 31.7099 29.1668 29.2391C31.1361 27.2512 32.3937 24.7333 32.809 22.0059H29.2392C28.8635 23.7841 27.9886 25.4164 26.6843 26.733H26.682Z"
    fill="#269574" />
  <path d="M91.3508 19.1133H88.834V21.2349H91.3508V19.1133Z" fill="white" />
  <path d="M91.3499 22.4863H88.834V32.8361H91.3499V22.4863Z" fill="white" />
  <path
    d="M53.4444 29.1203H53.4043L50.7425 22.4863H47.8945L52.0734 32.0184L50.5736 35.4625H53.121C53.3242 34.9858 53.5389 34.4801 53.7678 33.9398C54.2945 32.6945 57.5345 25.0781 58.6451 22.4892H56.0147L53.4473 29.1232L53.4444 29.1203Z"
    fill="white" />
  <path
    d="M75.631 29.493C75.5881 29.7848 75.5223 30.0304 75.4278 30.2327C75.3334 30.435 75.2103 30.591 75.0529 30.7008C74.8955 30.8106 74.7037 30.8626 74.4747 30.8626C74.0454 30.8626 73.7477 30.6979 73.5817 30.3627C73.4157 30.0304 73.3327 29.5364 73.3327 28.8776V24.584H76.8704V22.4834H73.3327V20.1719H71.6211C71.6067 20.403 71.5896 20.6226 71.5638 20.8191C71.5094 21.2698 71.4178 21.6426 71.2948 21.9315C71.1688 22.2204 71.0114 22.4343 70.8168 22.5672C70.6221 22.7001 70.3874 22.7665 70.1098 22.7665H69.6719V24.5811H70.8168V28.7793C70.8168 29.3312 70.8654 29.8657 70.9627 30.3801C71.0601 30.8944 71.2318 31.348 71.4837 31.7438C71.7327 32.1397 72.079 32.4546 72.5169 32.6944C73.3556 33.1481 74.552 33.1654 75.445 32.8765C76.1405 32.6511 76.7216 32.1455 77.0564 31.4925C77.211 31.1891 77.3341 30.8684 77.4199 30.5332C77.5058 30.198 77.5659 29.8542 77.5974 29.5046C77.6289 29.155 77.6432 28.8227 77.6432 28.5077H75.6912C75.6912 28.8718 75.6711 29.1983 75.6282 29.4901L75.631 29.493Z"
    fill="white" />
  <path
    d="M84.3074 22.5597C84.3074 22.5597 84.2788 22.5713 84.2673 22.577C83.9897 22.7042 83.7407 22.8631 83.5203 23.0509C82.8448 23.6519 82.5156 24.5071 82.3553 25.1688H82.2036V22.4817H79.8223V32.8314H82.3496V28.2027C82.3496 27.6768 82.4212 27.2087 82.5643 26.7955C82.7074 26.3823 82.9278 26.0298 83.2283 25.7409C83.5289 25.452 83.9153 25.2295 84.3818 25.0735C84.8483 24.9203 85.4093 24.8423 86.0619 24.8423V22.2188C85.5067 22.2188 85.0172 22.2939 84.5907 22.4441C84.4934 22.4788 84.4018 22.5164 84.3102 22.5568L84.3074 22.5597Z"
    fill="white" />
  <path
    d="M50.419 12.0191C50.419 11.6262 50.4734 11.2564 50.585 10.9067C50.6967 10.5571 50.8512 10.2537 51.0487 9.99369C51.2462 9.73365 51.4809 9.53139 51.75 9.38115C52.5514 8.93618 53.6705 9.08065 54.3689 9.65564C54.9986 10.1728 55.1303 11.0628 55.1303 11.8313V17.5639H57.6462V11.4008C57.6462 10.7854 57.5861 10.2046 57.463 9.6643C57.3399 9.12399 57.1481 8.65013 56.8819 8.24851C55.6855 6.44265 52.6659 6.48599 51.3092 8.04914C51.0201 8.38142 50.6509 8.88128 50.4419 9.38115H50.2759V7.21411H47.8945V17.561H50.4219V12.0191H50.419Z"
    fill="white" />
  <path
    d="M86.0428 8.2465C84.8464 6.44071 81.8269 6.48405 80.4703 8.04714C80.1926 8.36496 79.8435 8.8388 79.6317 9.31552C79.5115 8.91681 79.3483 8.55854 79.1422 8.2465C77.9459 6.44071 74.9263 6.48405 73.5697 8.04714C73.2806 8.3794 72.9114 8.87925 72.7025 9.37909H72.5336V7.21214H70.1523V17.5615H72.6796V12.0199C72.6796 11.6269 72.734 11.2571 72.8456 10.9075C72.9572 10.5579 73.1118 10.2545 73.3093 9.9945C73.5067 9.73447 73.7414 9.53222 74.0105 9.38198C74.809 8.93703 75.9309 9.08149 76.6293 9.65646C77.259 10.1736 77.3906 11.0635 77.3906 11.8321V17.5644H79.9064V11.4016C79.9064 11.2918 79.9064 11.1849 79.9007 11.0809C79.8864 10.6966 79.9751 10.3065 80.2069 10.0003C80.2069 10.0003 80.2069 9.99739 80.2098 9.9945C80.4073 9.73447 80.642 9.53222 80.911 9.38198C81.7096 8.93703 82.8315 9.08149 83.5299 9.65646C84.1595 10.1736 84.2912 11.0635 84.2912 11.8321V17.5644L86.807 17.5644V11.4016C86.807 10.7862 86.7469 10.2054 86.6238 9.66512C86.5007 9.12483 86.309 8.65099 86.0399 8.24939L86.0428 8.2465Z"
    fill="white" />
  <path
    d="M104.73 8.2465C103.534 6.44071 100.514 6.48405 99.1578 8.04714C98.8801 8.36496 98.531 8.8388 98.3192 9.31552C98.199 8.91681 98.0358 8.55854 97.8297 8.2465C96.6334 6.44071 93.6138 6.48405 92.2572 8.04714C91.9681 8.3794 91.5989 8.87925 91.39 9.37909H91.2211V7.21214H88.8398V17.5615H91.3671V12.0199C91.3671 11.6269 91.4215 11.2571 91.5331 10.9075C91.6447 10.5579 91.7993 10.2545 91.9968 9.9945C92.1942 9.73447 92.4289 9.53222 92.698 9.38198C93.4994 8.93703 94.6185 9.08149 95.3168 9.65646C95.9465 10.1736 96.0781 11.0635 96.0781 11.8321V17.5644H98.5939V11.4016C98.5939 11.2918 98.5939 11.1849 98.5882 11.0809C98.5739 10.6966 98.6626 10.3065 98.8944 10.0003C98.8944 10.0003 98.8945 9.99739 98.8973 9.9945C99.0948 9.73447 99.3295 9.53222 99.5985 9.38198C100.4 8.93703 101.519 9.08149 102.217 9.65646C102.847 10.1736 102.979 11.0635 102.979 11.8321V17.5644L105.494 17.5644V11.4016C105.494 10.7862 105.434 10.2054 105.311 9.66512C105.188 9.12483 104.996 8.65099 104.73 8.24939V8.2465Z"
    fill="white" />
  <path
    d="M67.4643 8.05203C67.1122 7.69085 66.68 7.41925 66.1677 7.23144C65.6582 7.04652 65.08 6.95117 64.4332 6.95117C63.7863 6.95117 62.8189 7.04941 62.3065 7.24589C61.7942 7.44237 61.3591 7.7053 61.0099 8.03469C60.6579 8.36408 60.3974 8.74548 60.2171 9.18177C60.0396 9.61518 59.9509 10.0775 59.9509 10.56H62.2321C62.2321 10.3635 62.2722 10.1699 62.3523 9.98213C62.4325 9.79432 62.547 9.62385 62.6958 9.47071C62.8446 9.31757 63.025 9.19911 63.2396 9.10376C63.4514 9.00841 64.0353 8.96218 64.2986 8.96218C64.562 8.96218 64.8024 8.99685 65.0171 9.0662C65.2317 9.13554 65.4149 9.2569 65.5638 9.43026C65.7126 9.60362 65.8299 9.83188 65.9129 10.1179C65.996 10.4069 66.0389 10.768 66.0389 11.2014V11.4442C65.1774 11.4442 64.0181 11.4904 63.2453 11.5857C62.4725 11.6811 61.7971 11.8573 61.2132 12.1232C60.6293 12.3861 60.1684 12.753 59.8278 13.2211C59.4872 13.6921 59.3184 14.3046 59.3184 15.0617C59.3184 15.5095 59.3956 15.9083 59.5531 16.255C59.7076 16.6017 59.9252 16.8935 60.1999 17.1276C60.4747 17.3616 60.801 17.5408 61.1788 17.6621C61.5595 17.7863 61.9659 17.847 62.4038 17.847C63.2425 17.847 64.1527 17.7748 64.8625 17.2778C65.1745 17.0582 65.4321 16.7693 65.6353 16.4457C65.6782 16.3763 66.0217 15.5846 66.0303 15.5846H66.1763V17.5841H68.5605V11.2535C68.5605 10.5513 68.4661 9.93301 68.28 9.39848C68.0911 8.86105 67.8221 8.4132 67.4671 8.05203H67.4643ZM65.8815 14.1082C65.7756 14.4693 65.6267 14.7843 65.4264 15.0501C65.2289 15.3159 64.8911 15.524 64.6078 15.6771C64.3244 15.8302 63.7491 15.9111 63.3799 15.9111C62.9133 15.9111 62.5555 15.7927 62.3065 15.5586C62.0575 15.3246 61.9316 15.0212 61.9316 14.6485C61.9316 14.2758 62.0289 14.0013 62.2293 13.7759C62.4267 13.5505 62.6958 13.3772 63.0421 13.2558C63.3856 13.1344 64.1298 13.0507 64.5849 13.0073C65.04 12.964 65.5237 12.9437 66.0389 12.9437C66.0389 13.3569 65.9874 13.7441 65.8843 14.1053L65.8815 14.1082Z"
    fill="white" />
  <path
    d="M67.4643 23.3118C67.1122 22.9506 66.68 22.679 66.1677 22.4912C65.6582 22.3063 65.08 22.2109 64.4332 22.2109C63.7863 22.2109 62.8189 22.3092 62.3065 22.5057C61.7942 22.7021 61.3591 22.9651 61.0099 23.2945C60.6607 23.6238 60.3974 24.0052 60.2171 24.4415C60.0396 24.8749 59.9509 25.3372 59.9509 25.8198H62.2321C62.2321 25.6233 62.2722 25.4297 62.3523 25.2419C62.4325 25.0541 62.547 24.8836 62.6958 24.7305C62.8446 24.5773 63.025 24.4589 63.2396 24.3635C63.4514 24.2682 64.0353 24.2219 64.2986 24.2219C64.562 24.2219 64.8024 24.2566 65.0171 24.326C65.2317 24.3953 65.4149 24.5167 65.5638 24.69C65.7126 24.8634 65.8299 25.0916 65.9129 25.3777C65.996 25.6666 66.0389 26.0278 66.0389 26.4612V26.7039C65.1774 26.7039 64.0181 26.7502 63.2453 26.8455C62.4725 26.9409 61.7971 27.1171 61.2132 27.3829C60.6293 27.6459 60.1684 28.0128 59.8278 28.4809C59.4872 28.9519 59.3184 29.5644 59.3184 30.3214C59.3184 30.7693 59.3956 31.168 59.5531 31.5147C59.7076 31.8615 59.9252 32.1533 60.1999 32.3873C60.4747 32.6214 60.801 32.8005 61.1788 32.9219C61.5595 33.0461 61.9659 33.1068 62.4038 33.1068C63.2482 33.1068 64.2156 33.0172 64.9169 32.4971C65.4607 32.0926 65.8242 31.4858 66.0303 30.8444H66.1763V32.8439H68.5605V26.5132C68.5605 25.8111 68.4661 25.1928 68.28 24.6582C68.0911 24.1208 67.8221 23.673 67.4671 23.3118H67.4643ZM65.8815 29.3679C65.7756 29.7291 65.6267 30.044 65.4264 30.3099C65.2289 30.5757 64.8911 30.7837 64.6078 30.9369C64.3244 31.09 63.7491 31.1709 63.3799 31.1709C62.9133 31.1709 62.5555 31.0524 62.3065 30.8184C62.0575 30.5844 61.9316 30.281 61.9316 29.9082C61.9316 29.5355 62.0289 29.2581 62.2293 29.0357C62.4267 28.8103 62.6958 28.6369 63.0421 28.5156C63.3856 28.3942 64.1298 28.3104 64.5849 28.2671C65.04 28.2237 65.5237 28.2035 66.0389 28.2035C66.0389 28.6167 65.9874 29.0039 65.8843 29.365L65.8815 29.3679Z"
    fill="white" />
  <path
    d="M115.9 9.39848C115.711 8.86105 115.439 8.4132 115.087 8.05203C114.735 7.69085 114.303 7.41925 113.791 7.23144C113.281 7.04652 112.703 6.95117 112.056 6.95117C111.409 6.95117 110.442 7.04941 109.93 7.24589C109.417 7.44237 108.982 7.7053 108.633 8.03469C108.281 8.36408 108.02 8.74548 107.84 9.18177C107.663 9.61518 107.574 10.0775 107.574 10.56H109.855C109.855 10.3635 109.895 10.1699 109.975 9.98213C110.056 9.79432 110.17 9.62385 110.319 9.47071C110.468 9.32046 110.651 9.19911 110.863 9.10376C111.074 9.00841 111.658 8.96218 111.922 8.96218C112.185 8.96218 112.425 8.99685 112.64 9.0662C112.855 9.13554 113.038 9.2569 113.187 9.43026C113.336 9.60362 113.453 9.83188 113.536 10.1179C113.619 10.4069 113.662 10.768 113.662 11.2014V11.4442C112.8 11.4442 111.641 11.4904 110.868 11.5857C110.098 11.6811 109.42 11.8573 108.836 12.1232C108.252 12.3861 107.791 12.753 107.451 13.2211C107.11 13.6921 106.941 14.3046 106.941 15.0617C106.941 15.5095 107.019 15.9083 107.176 16.255C107.331 16.6017 107.548 16.8935 107.823 17.1276C108.098 17.3616 108.424 17.5408 108.802 17.6621C109.183 17.7863 109.589 17.847 110.027 17.847C110.637 17.847 111.346 17.769 111.905 17.5812C113.018 17.168 113.49 16.1336 113.682 15.5008H113.802V17.5841H116.186V11.2535C116.186 10.5513 116.092 9.93301 115.906 9.39848H115.9ZM113.505 14.1082C113.399 14.4693 113.25 14.7843 113.049 15.0501C112.852 15.3159 112.514 15.524 112.231 15.6771C111.947 15.8302 111.372 15.9111 111.003 15.9111C110.536 15.9111 110.179 15.7927 109.93 15.5586C109.681 15.3246 109.555 15.0212 109.555 14.6485C109.555 14.2758 109.652 14.0013 109.852 13.7759C110.05 13.5505 110.319 13.3772 110.665 13.2558C111.009 13.1344 111.753 13.0507 112.208 13.0073C112.663 12.964 113.147 12.9437 113.662 12.9437C113.662 13.3569 113.61 13.7441 113.507 14.1053L113.505 14.1082Z"
    fill="white" />
</svg>